<svg width="104" height="25" viewBox="0 0 104 25" fill="none" xmlns="http://www.w3.org/2000/svg">
<path d="M3.71019 24.0288C2.55173 24.0288 1.64375 23.699 0.986252 23.0394C0.328751 22.3798 0 21.4689 0 20.3067V0.659615C0 0.219872 0.187858 0 0.563573 0H5.11912C6.77853 0 8.18746 0.54968 9.34591 1.64904L14.9347 6.87885C16.3436 8.16667 17.8465 9.1875 19.4433 9.94135C21.04 10.7266 22.9343 11.1192 25.1259 11.1192C27.3176 11.1192 29.2118 10.7266 30.8086 9.94135C32.4054 9.1875 33.9083 8.16667 35.3172 6.87885L42.0331 0.612499C42.2523 0.392627 42.4558 0.21987 42.6437 0.0942295C42.8315 0.0314098 43.0037 0 43.1603 0H46.5417C47.7002 0 48.6081 0.329807 49.2656 0.989421C49.9231 1.64904 50.2519 2.55993 50.2519 3.72211V23.3692C50.2519 23.809 50.064 24.0288 49.6883 24.0288H47.3871C46.2286 24.0288 45.3206 23.699 44.6631 23.0394C44.0056 22.3798 43.6769 21.4689 43.6769 20.3067V16.349C43.6769 15.3125 43.3481 14.4644 42.6906 13.8048C42.0644 13.1452 41.2504 12.8154 40.2485 12.8154C39.4344 12.8154 38.6987 12.9724 38.0412 13.2865C37.2897 13.6321 36.6009 14.0561 35.9747 14.5587C35.3172 15.0926 34.691 15.6266 34.0961 16.1606C33.6578 16.6003 33.0942 17.1343 32.4054 17.7625L30.5738 19.4115C29.7911 20.134 29.1962 20.6365 28.7892 20.9192C28.1004 21.4532 27.5055 21.8144 27.0045 22.0029C26.4096 22.2856 25.7834 22.4269 25.1259 22.4269C24.4998 22.4269 23.8736 22.2856 23.2474 22.0029C22.7464 21.8144 22.1515 21.4532 21.4627 20.9192C21.0557 20.6365 20.4608 20.134 19.6781 19.4115L17.8465 17.7625C17.1577 17.1343 16.5941 16.6003 16.1557 16.1606C15.5609 15.6266 14.9347 15.0926 14.2772 14.5587C13.651 14.0561 12.9622 13.6321 12.2107 13.2865C11.5532 12.9724 10.8175 12.8154 10.0034 12.8154C9.00151 12.8154 8.1718 13.1609 7.5143 13.8519C6.88811 14.5115 6.57501 15.3439 6.57501 16.349V23.3692C6.57501 23.809 6.38716 24.0288 6.01144 24.0288H3.71019Z" fill="white"/>
<path d="M56.3219 24.0288C55.1634 24.0288 54.2554 23.699 53.5979 23.0394C52.9404 22.3798 52.6117 21.4689 52.6117 20.3067V0.659615C52.6117 0.219872 52.7995 0 53.1752 0H62.709C65.2138 0 67.562 0.64391 69.7537 1.93173C71.9453 3.18814 73.6987 4.88429 75.0137 7.02019C76.36 9.15609 77.0331 11.449 77.0331 13.899C77.0331 17.2285 76.0939 19.7571 74.2153 21.4846C72.368 23.1808 69.785 24.0288 66.4662 24.0288H56.3219ZM66.5131 17.8096C67.6403 17.8096 68.5796 17.4798 69.331 16.8202C70.0824 16.1606 70.4581 15.2654 70.4581 14.1346C70.4581 12.8782 70.0668 11.6375 69.284 10.4125C68.5326 9.1875 67.5463 8.18237 66.3253 7.39711C65.1355 6.61186 63.9144 6.21923 62.662 6.21923C61.5349 6.21923 60.6739 6.59615 60.079 7.35C59.4841 8.07244 59.1867 9.01474 59.1867 10.1769V17.8096H66.5131Z" fill="white"/>
<path d="M92.819 24.5C90.5021 24.5 88.2634 23.8561 86.1031 22.5683C83.9427 21.249 82.205 19.5058 80.89 17.3385C79.575 15.1712 78.9175 12.8625 78.9175 10.4125V0.659615C78.9175 0.219872 79.1054 0 79.4811 0H89.2966C90.9873 0 92.6311 0.345513 94.2279 1.03654C95.856 1.69615 97.3589 2.65417 98.7365 3.91058C99.0809 4.22468 99.1278 4.50737 98.8774 4.75865L96.3883 7.20865C95.7621 7.83686 95.1359 8.15096 94.5097 8.15096C94.0713 8.15096 93.5704 7.9625 93.0068 7.58558C91.7544 6.67468 90.5177 6.21923 89.2966 6.21923C88.1382 6.21923 87.2145 6.59615 86.5257 7.35C85.8369 8.07244 85.4925 9.03045 85.4925 10.224C85.4925 11.4176 85.8682 12.6426 86.6197 13.899C87.3711 15.1554 88.3104 16.2077 89.4375 17.0558C90.596 17.8724 91.7231 18.2808 92.819 18.2808C93.6643 18.2808 94.3844 18.0609 94.9793 17.6212C95.6055 17.1814 96.0438 16.5689 96.2943 15.7837C96.7013 14.6215 97.578 14.0404 98.9243 14.0404H102.588C102.932 14.0404 103.104 14.2131 103.104 14.5587C103.104 16.349 102.65 18.0138 101.742 19.5529C100.866 21.0606 99.6445 22.2699 98.079 23.1808C96.5135 24.0603 94.7602 24.5 92.819 24.5Z" fill="white"/>
</svg>
